<svg width="66" height="18" viewBox="0 0 66 18" fill="none" xmlns="http://www.w3.org/2000/svg">
<path d="M8.91992 1.18945L11.2734 17H7.06445L6.85938 14.1582H5.38477L5.14062 17H0.882812L2.97266 1.18945H8.91992ZM6.74219 11.3555C6.53385 9.5651 6.32552 7.35482 6.11719 4.72461C5.70052 7.74544 5.4401 9.95573 5.33594 11.3555H6.74219ZM22.5762 8.08398H18.4648V5.33008C18.4648 4.5293 18.4193 4.03125 18.3281 3.83594C18.2435 3.63411 18.0514 3.5332 17.752 3.5332C17.4134 3.5332 17.1986 3.65365 17.1074 3.89453C17.0163 4.13542 16.9707 4.65625 16.9707 5.45703V12.8008C16.9707 13.569 17.0163 14.0703 17.1074 14.3047C17.1986 14.5391 17.4036 14.6562 17.7227 14.6562C18.0286 14.6562 18.2272 14.5391 18.3184 14.3047C18.416 14.0703 18.4648 13.5202 18.4648 12.6543V10.6719H22.5762V11.2871C22.5762 12.9212 22.459 14.0801 22.2246 14.7637C21.9967 15.4473 21.4857 16.0462 20.6914 16.5605C19.9036 17.0749 18.9303 17.332 17.7715 17.332C16.5671 17.332 15.5742 17.1139 14.793 16.6777C14.0117 16.2415 13.4941 15.6393 13.2402 14.8711C12.9863 14.0964 12.8594 12.9342 12.8594 11.3848V6.76562C12.8594 5.6263 12.8984 4.77344 12.9766 4.20703C13.0547 3.63411 13.2858 3.08398 13.6699 2.55664C14.0605 2.0293 14.5977 1.61589 15.2812 1.31641C15.9714 1.01042 16.7624 0.857422 17.6543 0.857422C18.8652 0.857422 19.8646 1.0918 20.6523 1.56055C21.4401 2.0293 21.9577 2.61523 22.2051 3.31836C22.4525 4.01497 22.5762 5.10221 22.5762 6.58008V8.08398ZM34.6504 8.08398H30.5391V5.33008C30.5391 4.5293 30.4935 4.03125 30.4023 3.83594C30.3177 3.63411 30.1257 3.5332 29.8262 3.5332C29.4876 3.5332 29.2728 3.65365 29.1816 3.89453C29.0905 4.13542 29.0449 4.65625 29.0449 5.45703V12.8008C29.0449 13.569 29.0905 14.0703 29.1816 14.3047C29.2728 14.5391 29.4779 14.6562 29.7969 14.6562C30.1029 14.6562 30.3014 14.5391 30.3926 14.3047C30.4902 14.0703 30.5391 13.5202 30.5391 12.6543V10.6719H34.6504V11.2871C34.6504 12.9212 34.5332 14.0801 34.2988 14.7637C34.071 15.4473 33.5599 16.0462 32.7656 16.5605C31.9779 17.0749 31.0046 17.332 29.8457 17.332C28.6413 17.332 27.6484 17.1139 26.8672 16.6777C26.0859 16.2415 25.5684 15.6393 25.3145 14.8711C25.0605 14.0964 24.9336 12.9342 24.9336 11.3848V6.76562C24.9336 5.6263 24.9727 4.77344 25.0508 4.20703C25.1289 3.63411 25.36 3.08398 25.7441 2.55664C26.1348 2.0293 26.6719 1.61589 27.3555 1.31641C28.0456 1.01042 28.8366 0.857422 29.7285 0.857422C30.9395 0.857422 31.9388 1.0918 32.7266 1.56055C33.5143 2.0293 34.0319 2.61523 34.2793 3.31836C34.5267 4.01497 34.6504 5.10221 34.6504 6.58008V8.08398ZM37.125 1.18945H43.9805V4.35352H41.2363V7.35156H43.8047V10.3594H41.2363V13.8359H44.2539V17H37.125V1.18945ZM46.4453 1.18945H50.5859C51.7057 1.18945 52.5651 1.27734 53.1641 1.45312C53.7695 1.62891 54.222 1.88281 54.5215 2.21484C54.8275 2.54688 55.0326 2.95052 55.1367 3.42578C55.2474 3.89453 55.3027 4.6237 55.3027 5.61328V6.99023C55.3027 7.99935 55.1986 8.73503 54.9902 9.19727C54.7819 9.65951 54.3978 10.0143 53.8379 10.2617C53.2845 10.5091 52.5586 10.6328 51.6602 10.6328H50.5566V17H46.4453V1.18945ZM50.5566 3.89453V7.91797C50.6738 7.92448 50.7747 7.92773 50.8594 7.92773C51.237 7.92773 51.4974 7.83659 51.6406 7.6543C51.7904 7.46549 51.8652 7.07812 51.8652 6.49219V5.19336C51.8652 4.65299 51.7806 4.30143 51.6113 4.13867C51.4421 3.97591 51.0905 3.89453 50.5566 3.89453ZM65.7656 1.18945V4.35352H63.3242V17H59.2129V4.35352H56.7812V1.18945H65.7656Z" fill="url(#paint0_linear_17_418)"/>
<path d="M8.91992 1.18945L9.90902 1.04222C9.83608 0.552197 9.41534 0.189453 8.91992 0.189453V1.18945ZM11.2734 17V18C11.5644 18 11.8408 17.8733 12.0308 17.653C12.2208 17.4326 12.3054 17.1405 12.2625 16.8528L11.2734 17ZM7.06445 17L6.06705 17.072C6.10479 17.595 6.5401 18 7.06445 18V17ZM6.85938 14.1582L7.85678 14.0862C7.81904 13.5632 7.38373 13.1582 6.85938 13.1582V14.1582ZM5.38477 14.1582V13.1582C4.86566 13.1582 4.43287 13.5554 4.38844 14.0726L5.38477 14.1582ZM5.14062 17V18C5.65973 18 6.09252 17.6028 6.13695 17.0856L5.14062 17ZM0.882812 17L-0.108564 16.869C-0.146312 17.1545 -0.0590752 17.4425 0.130802 17.6592C0.320679 17.8758 0.59475 18 0.882812 18V17ZM2.97266 1.18945V0.189453C2.47102 0.189453 2.04701 0.561105 1.98128 1.05841L2.97266 1.18945ZM6.74219 11.3555V12.3555C7.02753 12.3555 7.29929 12.2336 7.48904 12.0205C7.67879 11.8073 7.76847 11.5233 7.73549 11.2399L6.74219 11.3555ZM6.11719 4.72461L7.11407 4.64565C7.07375 4.1367 6.65652 3.73984 6.14619 3.72503C5.63587 3.71022 5.19633 4.08222 5.12657 4.58797L6.11719 4.72461ZM5.33594 11.3555L4.3387 11.2813C4.31806 11.5586 4.41385 11.832 4.60306 12.0358C4.79228 12.2397 5.05783 12.3555 5.33594 12.3555V11.3555ZM7.93082 1.33669L10.2843 17.1472L12.2625 16.8528L9.90902 1.04222L7.93082 1.33669ZM11.2734 16H7.06445V18H11.2734V16ZM8.06186 16.928L7.85678 14.0862L5.86197 14.2302L6.06705 17.072L8.06186 16.928ZM6.85938 13.1582H5.38477V15.1582H6.85938V13.1582ZM4.38844 14.0726L4.14429 16.9144L6.13695 17.0856L6.3811 14.2438L4.38844 14.0726ZM5.14062 16H0.882812V18H5.14062V16ZM1.87419 17.131L3.96403 1.32049L1.98128 1.05841L-0.108564 16.869L1.87419 17.131ZM2.97266 2.18945H8.91992V0.189453H2.97266V2.18945ZM7.73549 11.2399C7.52905 9.46586 7.32183 7.26867 7.11407 4.64565L5.12031 4.80357C5.32921 7.44097 5.53865 9.66435 5.74889 11.4711L7.73549 11.2399ZM5.12657 4.58797C4.70955 7.61137 4.44535 9.84806 4.3387 11.2813L6.33318 11.4297C6.43486 10.0634 6.6915 7.87952 7.10781 4.86125L5.12657 4.58797ZM5.33594 12.3555H6.74219V10.3555H5.33594V12.3555ZM22.5762 8.08398V9.08398C23.1285 9.08398 23.5762 8.63627 23.5762 8.08398H22.5762ZM18.4648 8.08398H17.4648C17.4648 8.63627 17.9126 9.08398 18.4648 9.08398V8.08398ZM18.3281 3.83594L17.4059 4.22266C17.411 4.23482 17.4164 4.24688 17.4219 4.25882L18.3281 3.83594ZM17.1074 3.89453L16.1721 3.54064L17.1074 3.89453ZM17.1074 14.3047L16.1754 14.6671L17.1074 14.3047ZM18.3184 14.3047L17.3953 13.9201C17.3922 13.9274 17.3892 13.9348 17.3864 13.9422L18.3184 14.3047ZM18.4648 10.6719V9.67188C17.9126 9.67188 17.4648 10.1196 17.4648 10.6719H18.4648ZM22.5762 10.6719H23.5762C23.5762 10.1196 23.1285 9.67188 22.5762 9.67188V10.6719ZM22.2246 14.7637L21.2786 14.4393L21.2759 14.4474L22.2246 14.7637ZM20.6914 16.5605L20.1479 15.7212L20.1447 15.7232L20.6914 16.5605ZM13.2402 14.8711L12.29 15.1825L12.2907 15.1849L13.2402 14.8711ZM12.9766 4.20703L13.9672 4.34367L13.9674 4.34214L12.9766 4.20703ZM13.6699 2.55664L12.8663 1.96139L12.8616 1.96788L13.6699 2.55664ZM15.2812 1.31641L15.6825 2.23237L15.6866 2.23057L15.2812 1.31641ZM22.2051 3.31836L21.2618 3.65027L21.2627 3.65302L22.2051 3.31836ZM22.5762 7.08398H18.4648V9.08398H22.5762V7.08398ZM19.4648 8.08398V5.33008H17.4648V8.08398H19.4648ZM19.4648 5.33008C19.4648 4.91498 19.4532 4.55656 19.4265 4.26483C19.4034 4.01267 19.3604 3.68331 19.2343 3.41305L17.4219 4.25882C17.3959 4.20299 17.3968 4.1817 17.4068 4.23264C17.4151 4.27482 17.4254 4.34406 17.4348 4.44708C17.4537 4.6534 17.4648 4.9444 17.4648 5.33008H19.4648ZM19.2503 3.44921C19.119 3.13613 18.8894 2.88317 18.5857 2.72364C18.3022 2.57466 18.0053 2.5332 17.752 2.5332V4.5332C17.7981 4.5332 17.747 4.5422 17.6555 4.49413C17.607 4.46864 17.5543 4.43063 17.5064 4.37814C17.4585 4.32574 17.4261 4.27088 17.4059 4.22266L19.2503 3.44921ZM17.752 2.5332C17.4726 2.5332 17.1503 2.58174 16.8479 2.75125C16.5255 2.93202 16.2968 3.21122 16.1721 3.54064L18.0427 4.24842C18.0287 4.28539 18.0037 4.33361 17.9621 4.3827C17.9201 4.43229 17.8721 4.46994 17.8259 4.49582C17.7384 4.54489 17.6927 4.5332 17.752 4.5332V2.5332ZM16.1721 3.54064C16.0756 3.79578 16.033 4.10051 16.0087 4.37865C15.9824 4.67897 15.9707 5.04107 15.9707 5.45703H17.9707C17.9707 5.07222 17.9818 4.77351 18.0011 4.55299C18.0223 4.3103 18.0481 4.23417 18.0427 4.24842L16.1721 3.54064ZM15.9707 5.45703V12.8008H17.9707V5.45703H15.9707ZM15.9707 12.8008C15.9707 13.2012 15.9824 13.5515 16.009 13.8435C16.0336 14.1137 16.0768 14.4136 16.1754 14.6671L18.0394 13.9422C18.0469 13.9614 18.0218 13.8934 18.0008 13.6624C17.9817 13.4531 17.9707 13.1686 17.9707 12.8008H15.9707ZM16.1754 14.6671C16.2983 14.983 16.5186 15.2567 16.8335 15.4366C17.131 15.6066 17.4478 15.6562 17.7227 15.6562V13.6562C17.6785 13.6562 17.7333 13.6473 17.8257 13.7001C17.8736 13.7275 17.9211 13.7658 17.9619 13.8141C18.0021 13.8619 18.0261 13.9079 18.0394 13.9422L16.1754 14.6671ZM17.7227 15.6562C17.9977 15.6562 18.3136 15.6041 18.6093 15.4296C18.9197 15.2464 19.1313 14.9732 19.2504 14.6671L17.3864 13.9422C17.3981 13.912 17.4201 13.8687 17.4581 13.8225C17.4969 13.7755 17.5434 13.7363 17.5928 13.7072C17.69 13.6498 17.7536 13.6562 17.7227 13.6562V15.6562ZM19.2414 14.6893C19.3537 14.4198 19.3989 14.0909 19.4243 13.8047C19.4524 13.4887 19.4648 13.1022 19.4648 12.6543H17.4648C17.4648 13.0722 17.4529 13.3938 17.4321 13.6279C17.4087 13.8919 17.3806 13.9552 17.3953 13.9201L19.2414 14.6893ZM19.4648 12.6543V10.6719H17.4648V12.6543H19.4648ZM18.4648 11.6719H22.5762V9.67188H18.4648V11.6719ZM21.5762 10.6719V11.2871H23.5762V10.6719H21.5762ZM21.5762 11.2871C21.5762 12.9146 21.4545 13.9265 21.2787 14.4393L23.1706 15.088C23.4635 14.2337 23.5762 12.9278 23.5762 11.2871H21.5762ZM21.2759 14.4474C21.1396 14.8565 20.8117 15.2913 20.1479 15.7212L21.2349 17.3999C22.1597 16.8011 22.8539 16.0381 23.1733 15.0799L21.2759 14.4474ZM20.1447 15.7232C19.5536 16.1091 18.7814 16.332 17.7715 16.332V18.332C19.0793 18.332 20.2537 18.0406 21.2381 17.3979L20.1447 15.7232ZM17.7715 16.332C16.681 16.332 15.87 16.1337 15.2805 15.8046L14.3055 17.5509C15.2785 18.0941 16.4531 18.332 17.7715 18.332V16.332ZM15.2805 15.8046C14.6927 15.4765 14.3565 15.0619 14.1897 14.5573L12.2907 15.1849C12.6318 16.2167 13.3307 17.0066 14.3055 17.5509L15.2805 15.8046ZM14.1905 14.5597C13.9871 13.9391 13.8594 12.9057 13.8594 11.3848H11.8594C11.8594 12.9628 11.9855 14.2536 12.29 15.1825L14.1905 14.5597ZM13.8594 11.3848V6.76562H11.8594V11.3848H13.8594ZM13.8594 6.76562C13.8594 5.63654 13.8988 4.83966 13.9672 4.34367L11.9859 4.07039C11.8981 4.70722 11.8594 5.61606 11.8594 6.76562H13.8594ZM13.9674 4.34214C14.0204 3.9533 14.1789 3.55637 14.4782 3.14541L12.8616 1.96788C12.3927 2.6116 12.089 3.31493 11.9857 4.07192L13.9674 4.34214ZM14.4735 3.15187C14.7467 2.78303 15.1364 2.47161 15.6825 2.23236L14.88 0.400449C14.0589 0.760158 13.3744 1.27557 12.8664 1.96141L14.4735 3.15187ZM15.6866 2.23057C16.228 1.99051 16.877 1.85742 17.6543 1.85742V-0.142578C16.6478 -0.142578 15.7147 0.0303278 14.8759 0.402239L15.6866 2.23057ZM17.6543 1.85742C18.7414 1.85742 19.55 2.06823 20.141 2.41991L21.1637 0.70118C20.1792 0.115364 18.989 -0.142578 17.6543 -0.142578V1.85742ZM20.141 2.41991C20.7753 2.79735 21.1088 3.21552 21.2618 3.65027L23.1484 2.98645C22.8066 2.01495 22.1049 1.26125 21.1637 0.70118L20.141 2.41991ZM21.2627 3.65302C21.4503 4.18128 21.5762 5.1258 21.5762 6.58008H23.5762C23.5762 5.07863 23.4546 3.84867 23.1474 2.9837L21.2627 3.65302ZM21.5762 6.58008V8.08398H23.5762V6.58008H21.5762ZM34.6504 8.08398V9.08398C35.2027 9.08398 35.6504 8.63627 35.6504 8.08398H34.6504ZM30.5391 8.08398H29.5391C29.5391 8.63627 29.9868 9.08398 30.5391 9.08398V8.08398ZM30.4023 3.83594L29.4802 4.22266C29.4852 4.23482 29.4906 4.24688 29.4962 4.25882L30.4023 3.83594ZM29.1816 3.89453L28.2464 3.54064L29.1816 3.89453ZM29.1816 14.3047L28.2496 14.6671L29.1816 14.3047ZM30.3926 14.3047L29.4695 13.9201C29.4664 13.9274 29.4635 13.9348 29.4606 13.9422L30.3926 14.3047ZM30.5391 10.6719V9.67188C29.9868 9.67188 29.5391 10.1196 29.5391 10.6719H30.5391ZM34.6504 10.6719H35.6504C35.6504 10.1196 35.2027 9.67188 34.6504 9.67188V10.6719ZM34.2988 14.7637L33.3528 14.4393L33.3501 14.4474L34.2988 14.7637ZM32.7656 16.5605L32.2221 15.7212L32.2189 15.7232L32.7656 16.5605ZM25.3145 14.8711L24.3642 15.1825L24.365 15.1849L25.3145 14.8711ZM25.0508 4.20703L26.0414 4.34367L26.0416 4.34214L25.0508 4.20703ZM25.7441 2.55664L24.9406 1.96139L24.9358 1.96788L25.7441 2.55664ZM27.3555 1.31641L27.7567 2.23237L27.7608 2.23057L27.3555 1.31641ZM34.2793 3.31836L33.336 3.65027L33.337 3.65302L34.2793 3.31836ZM34.6504 7.08398H30.5391V9.08398H34.6504V7.08398ZM31.5391 8.08398V5.33008H29.5391V8.08398H31.5391ZM31.5391 5.33008C31.5391 4.91498 31.5274 4.55656 31.5007 4.26483C31.4776 4.01267 31.4346 3.68331 31.3085 3.41305L29.4962 4.25882C29.4701 4.20299 29.471 4.1817 29.4811 4.23264C29.4894 4.27482 29.4996 4.34406 29.509 4.44708C29.5279 4.6534 29.5391 4.9444 29.5391 5.33008H31.5391ZM31.3245 3.44921C31.1932 3.13613 30.9636 2.88317 30.66 2.72364C30.3764 2.57466 30.0795 2.5332 29.8262 2.5332V4.5332C29.8723 4.5332 29.8212 4.5422 29.7297 4.49413C29.6812 4.46864 29.6286 4.43063 29.5806 4.37814C29.5327 4.32574 29.5004 4.27088 29.4802 4.22266L31.3245 3.44921ZM29.8262 2.5332C29.5468 2.5332 29.2245 2.58174 28.9221 2.75125C28.5997 2.93202 28.371 3.21122 28.2464 3.54064L30.1169 4.24842C30.1029 4.28539 30.0779 4.33361 30.0363 4.3827C29.9943 4.43229 29.9463 4.46994 29.9001 4.49582C29.8126 4.54489 29.767 4.5332 29.8262 4.5332V2.5332ZM28.2464 3.54064C28.1498 3.79578 28.1072 4.10051 28.0829 4.37865C28.0566 4.67897 28.0449 5.04107 28.0449 5.45703H30.0449C30.0449 5.07222 30.056 4.77351 30.0753 4.55299C30.0965 4.3103 30.1223 4.23417 30.1169 4.24842L28.2464 3.54064ZM28.0449 5.45703V12.8008H30.0449V5.45703H28.0449ZM28.0449 12.8008C28.0449 13.2012 28.0567 13.5515 28.0832 13.8435C28.1078 14.1137 28.151 14.4136 28.2496 14.6671L30.1136 13.9422C30.1211 13.9614 30.096 13.8934 30.075 13.6624C30.056 13.4531 30.0449 13.1686 30.0449 12.8008H28.0449ZM28.2496 14.6671C28.3725 14.983 28.5928 15.2567 28.9077 15.4366C29.2052 15.6066 29.522 15.6562 29.7969 15.6562V13.6562C29.7527 13.6562 29.8075 13.6473 29.8999 13.7001C29.9478 13.7275 29.9953 13.7658 30.0361 13.8141C30.0763 13.8619 30.1003 13.9079 30.1136 13.9422L28.2496 14.6671ZM29.7969 15.6562C30.0719 15.6562 30.3878 15.6041 30.6835 15.4296C30.9939 15.2464 31.2055 14.9732 31.3246 14.6671L29.4606 13.9422C29.4723 13.912 29.4943 13.8687 29.5324 13.8225C29.5711 13.7755 29.6177 13.7363 29.667 13.7072C29.7642 13.6498 29.8278 13.6562 29.7969 13.6562V15.6562ZM31.3157 14.6893C31.4279 14.4198 31.4731 14.0909 31.4985 13.8047C31.5266 13.4887 31.5391 13.1022 31.5391 12.6543H29.5391C29.5391 13.0722 29.5271 13.3938 29.5064 13.6279C29.4829 13.8919 29.4549 13.9552 29.4695 13.9201L31.3157 14.6893ZM31.5391 12.6543V10.6719H29.5391V12.6543H31.5391ZM30.5391 11.6719H34.6504V9.67188H30.5391V11.6719ZM33.6504 10.6719V11.2871H35.6504V10.6719H33.6504ZM33.6504 11.2871C33.6504 12.9146 33.5287 13.9265 33.3529 14.4393L35.2448 15.088C35.5377 14.2337 35.6504 12.9278 35.6504 11.2871H33.6504ZM33.3501 14.4474C33.2138 14.8565 32.8859 15.2913 32.2221 15.7212L33.3092 17.3999C34.2339 16.8011 34.9281 16.0381 35.2475 15.0799L33.3501 14.4474ZM32.2189 15.7232C31.6279 16.1091 30.8556 16.332 29.8457 16.332V18.332C31.1535 18.332 32.3279 18.0406 33.3123 17.3979L32.2189 15.7232ZM29.8457 16.332C28.7552 16.332 27.9442 16.1337 27.3547 15.8046L26.3797 17.5509C27.3527 18.0941 28.5274 18.332 29.8457 18.332V16.332ZM27.3547 15.8046C26.767 15.4765 26.4307 15.0619 26.2639 14.5573L24.365 15.1849C24.706 16.2167 25.4049 17.0066 26.3797 17.5509L27.3547 15.8046ZM26.2647 14.5597C26.0614 13.9391 25.9336 12.9057 25.9336 11.3848H23.9336C23.9336 12.9628 24.0597 14.2536 24.3642 15.1825L26.2647 14.5597ZM25.9336 11.3848V6.76562H23.9336V11.3848H25.9336ZM25.9336 6.76562C25.9336 5.63654 25.973 4.83966 26.0414 4.34367L24.0602 4.07039C23.9723 4.70722 23.9336 5.61606 23.9336 6.76562H25.9336ZM26.0416 4.34214C26.0946 3.9533 26.2531 3.55637 26.5524 3.14541L24.9358 1.96788C24.467 2.6116 24.1632 3.31493 24.06 4.07192L26.0416 4.34214ZM26.5477 3.15187C26.8209 2.78303 27.2106 2.47161 27.7567 2.23236L26.9542 0.400449C26.1331 0.760158 25.4486 1.27557 24.9406 1.96141L26.5477 3.15187ZM27.7608 2.23057C28.3022 1.99051 28.9512 1.85742 29.7285 1.85742V-0.142578C28.722 -0.142578 27.7889 0.0303278 26.9501 0.402239L27.7608 2.23057ZM29.7285 1.85742C30.8156 1.85742 31.6242 2.06823 32.2152 2.41991L33.2379 0.70118C32.2534 0.115364 31.0633 -0.142578 29.7285 -0.142578V1.85742ZM32.2152 2.41991C32.8495 2.79735 33.183 3.21552 33.336 3.65027L35.2226 2.98645C34.8808 2.01495 34.1791 1.26125 33.2379 0.70118L32.2152 2.41991ZM33.337 3.65302C33.5246 4.18128 33.6504 5.1258 33.6504 6.58008H35.6504C35.6504 5.07863 35.5288 3.84867 35.2216 2.9837L33.337 3.65302ZM33.6504 6.58008V8.08398H35.6504V6.58008H33.6504ZM37.125 1.18945V0.189453C36.5727 0.189453 36.125 0.637168 36.125 1.18945H37.125ZM43.9805 1.18945H44.9805C44.9805 0.637168 44.5328 0.189453 43.9805 0.189453V1.18945ZM43.9805 4.35352V5.35352C44.5328 5.35352 44.9805 4.9058 44.9805 4.35352H43.9805ZM41.2363 4.35352V3.35352C40.684 3.35352 40.2363 3.80123 40.2363 4.35352H41.2363ZM41.2363 7.35156H40.2363C40.2363 7.90385 40.684 8.35156 41.2363 8.35156V7.35156ZM43.8047 7.35156H44.8047C44.8047 6.79928 44.357 6.35156 43.8047 6.35156V7.35156ZM43.8047 10.3594V11.3594C44.357 11.3594 44.8047 10.9117 44.8047 10.3594H43.8047ZM41.2363 10.3594V9.35938C40.684 9.35938 40.2363 9.80709 40.2363 10.3594H41.2363ZM41.2363 13.8359H40.2363C40.2363 14.3882 40.684 14.8359 41.2363 14.8359V13.8359ZM44.2539 13.8359H45.2539C45.2539 13.2837 44.8062 12.8359 44.2539 12.8359V13.8359ZM44.2539 17V18C44.8062 18 45.2539 17.5523 45.2539 17H44.2539ZM37.125 17H36.125C36.125 17.5523 36.5727 18 37.125 18V17ZM37.125 2.18945H43.9805V0.189453H37.125V2.18945ZM42.9805 1.18945V4.35352H44.9805V1.18945H42.9805ZM43.9805 3.35352H41.2363V5.35352H43.9805V3.35352ZM40.2363 4.35352V7.35156H42.2363V4.35352H40.2363ZM41.2363 8.35156H43.8047V6.35156H41.2363V8.35156ZM42.8047 7.35156V10.3594H44.8047V7.35156H42.8047ZM43.8047 9.35938H41.2363V11.3594H43.8047V9.35938ZM40.2363 10.3594V13.8359H42.2363V10.3594H40.2363ZM41.2363 14.8359H44.2539V12.8359H41.2363V14.8359ZM43.2539 13.8359V17H45.2539V13.8359H43.2539ZM44.2539 16H37.125V18H44.2539V16ZM38.125 17V1.18945H36.125V17H38.125ZM46.4453 1.18945V0.189453C45.893 0.189453 45.4453 0.637168 45.4453 1.18945H46.4453ZM53.1641 1.45312L52.8825 2.41266L52.8853 2.41347L53.1641 1.45312ZM54.5215 2.21484L53.7789 2.88465L53.7861 2.89252L54.5215 2.21484ZM55.1367 3.42578L54.1599 3.63988C54.1611 3.64512 54.1622 3.65035 54.1635 3.65557L55.1367 3.42578ZM53.8379 10.2617L53.4337 9.34702L53.4298 9.34879L53.8379 10.2617ZM50.5566 10.6328V9.63281C50.0044 9.63281 49.5566 10.0805 49.5566 10.6328H50.5566ZM50.5566 17V18C51.1089 18 51.5566 17.5523 51.5566 17H50.5566ZM46.4453 17H45.4453C45.4453 17.5523 45.893 18 46.4453 18V17ZM50.5566 3.89453V2.89453C50.0044 2.89453 49.5566 3.34225 49.5566 3.89453H50.5566ZM50.5566 7.91797H49.5566C49.5566 8.4487 49.9713 8.88699 50.5012 8.91643L50.5566 7.91797ZM51.6406 7.6543L50.8571 7.0329L50.8543 7.03648L51.6406 7.6543ZM46.4453 2.18945H50.5859V0.189453H46.4453V2.18945ZM50.5859 2.18945C51.6732 2.18945 52.4202 2.277 52.8825 2.41266L53.4457 0.493594C52.71 0.277692 51.7383 0.189453 50.5859 0.189453V2.18945ZM52.8853 2.41347C53.382 2.55767 53.6451 2.73621 53.7789 2.88461L55.2641 1.54507C54.7989 1.02941 54.1571 0.700138 53.4429 0.492779L52.8853 2.41347ZM53.7861 2.89252C53.9627 3.08409 54.0907 3.32393 54.1599 3.63988L56.1135 3.21169C55.9744 2.57711 55.6923 2.00966 55.2568 1.53716L53.7861 2.89252ZM54.1635 3.65557C54.2461 4.00559 54.3027 4.63784 54.3027 5.61328H56.3027C56.3027 4.60956 56.2487 3.78347 56.11 3.19599L54.1635 3.65557ZM54.3027 5.61328V6.99023H56.3027V5.61328H54.3027ZM54.3027 6.99023C54.3027 7.97052 54.1955 8.52697 54.0786 8.78637L55.9019 9.60816C56.2017 8.94308 56.3027 8.02818 56.3027 6.99023H54.3027ZM54.0786 8.78637C53.9916 8.97929 53.8173 9.17756 53.4337 9.34703L54.2421 11.1764C54.9783 10.8511 55.5722 10.3397 55.9019 9.60816L54.0786 8.78637ZM53.4298 9.34879C53.0513 9.51798 52.4799 9.63281 51.6602 9.63281V11.6328C52.6373 11.6328 53.5177 11.5002 54.246 11.1746L53.4298 9.34879ZM51.6602 9.63281H50.5566V11.6328H51.6602V9.63281ZM49.5566 10.6328V17H51.5566V10.6328H49.5566ZM50.5566 16H46.4453V18H50.5566V16ZM47.4453 17V1.18945H45.4453V17H47.4453ZM49.5566 3.89453V7.91797H51.5566V3.89453H49.5566ZM50.5012 8.91643C50.6304 8.92361 50.7507 8.92773 50.8594 8.92773V6.92773C50.7988 6.92773 50.7173 6.92535 50.6121 6.91951L50.5012 8.91643ZM50.8594 8.92773C51.3522 8.92773 52.001 8.81427 52.4269 8.27212L50.8543 7.03648C50.8856 6.99668 50.9197 6.96679 50.9504 6.94601C50.9801 6.92587 51.0017 6.91758 51.0075 6.91552C51.013 6.91362 51.005 6.917 50.9792 6.9207C50.9534 6.92438 50.9143 6.92773 50.8594 6.92773V8.92773ZM52.4241 8.27569C52.643 7.99966 52.7402 7.67426 52.7909 7.41193C52.8447 7.13354 52.8652 6.82137 52.8652 6.49219H50.8652C50.8652 6.74894 50.8483 6.92343 50.8273 7.0324C50.817 7.08536 50.8083 7.1093 50.8072 7.11226C50.8056 7.1162 50.8179 7.08238 50.8571 7.0329L52.4241 8.27569ZM52.8652 6.49219V5.19336H50.8652V6.49219H52.8652ZM52.8652 5.19336C52.8652 4.87904 52.8414 4.57044 52.774 4.29036C52.7093 4.02165 52.5822 3.68488 52.3044 3.41784L50.9182 4.85951C50.8609 4.80442 50.8343 4.75612 50.8257 4.73881C50.8174 4.72198 50.8215 4.72493 50.8295 4.75847C50.8467 4.82995 50.8652 4.96732 50.8652 5.19336H52.8652ZM52.3044 3.41784C52.0377 3.16138 51.7111 3.04264 51.4462 2.98133C51.1704 2.91748 50.867 2.89453 50.5566 2.89453V4.89453C50.7802 4.89453 50.9194 4.91227 50.9952 4.92981C51.031 4.9381 51.0381 4.94308 51.0258 4.93732C51.0133 4.93146 50.9702 4.90948 50.9182 4.85951L52.3044 3.41784ZM65.7656 1.18945H66.7656C66.7656 0.637168 66.3179 0.189453 65.7656 0.189453V1.18945ZM65.7656 4.35352V5.35352C66.3179 5.35352 66.7656 4.9058 66.7656 4.35352H65.7656ZM63.3242 4.35352V3.35352C62.7719 3.35352 62.3242 3.80123 62.3242 4.35352H63.3242ZM63.3242 17V18C63.8765 18 64.3242 17.5523 64.3242 17H63.3242ZM59.2129 17H58.2129C58.2129 17.5523 58.6606 18 59.2129 18V17ZM59.2129 4.35352H60.2129C60.2129 3.80123 59.7652 3.35352 59.2129 3.35352V4.35352ZM56.7812 4.35352H55.7812C55.7812 4.9058 56.229 5.35352 56.7812 5.35352V4.35352ZM56.7812 1.18945V0.189453C56.229 0.189453 55.7812 0.637168 55.7812 1.18945H56.7812ZM64.7656 1.18945V4.35352H66.7656V1.18945H64.7656ZM65.7656 3.35352H63.3242V5.35352H65.7656V3.35352ZM62.3242 4.35352V17H64.3242V4.35352H62.3242ZM63.3242 16H59.2129V18H63.3242V16ZM60.2129 17V4.35352H58.2129V17H60.2129ZM59.2129 3.35352H56.7812V5.35352H59.2129V3.35352ZM57.7812 4.35352V1.18945H55.7812V4.35352H57.7812ZM56.7812 2.18945H65.7656V0.189453H56.7812V2.18945Z" fill="#00E0FF" fill-opacity="0.28"/>
<defs>
<linearGradient id="paint0_linear_17_418" x1="33.5" y1="-3" x2="33.5" y2="21" gradientUnits="userSpaceOnUse">
<stop stop-color="white"/>
<stop offset="1" stop-color="#1DC9FF"/>
</linearGradient>
</defs>
</svg>
