<svg width="45" height="18" viewBox="0 0 45 18" fill="none" xmlns="http://www.w3.org/2000/svg">
<path d="M8.91992 1.18945L11.2734 17H7.06445L6.85938 14.1582H5.38477L5.14062 17H0.882812L2.97266 1.18945H8.91992ZM6.74219 11.3555C6.53385 9.5651 6.32552 7.35482 6.11719 4.72461C5.70052 7.74544 5.4401 9.95573 5.33594 11.3555H6.74219ZM22.3223 1.18945V11.7559C22.3223 12.9538 22.2832 13.7969 22.2051 14.2852C22.127 14.7669 21.8958 15.265 21.5117 15.7793C21.1276 16.2871 20.6198 16.6745 19.9883 16.9414C19.3633 17.2018 18.6243 17.332 17.7715 17.332C16.8275 17.332 15.9941 17.1758 15.2715 16.8633C14.5488 16.5508 14.0085 16.1439 13.6504 15.6426C13.2923 15.1413 13.0807 14.6139 13.0156 14.0605C12.9505 13.5007 12.918 12.3288 12.918 10.5449V1.18945H17.0293V13.0449C17.0293 13.735 17.0651 14.1777 17.1367 14.373C17.2148 14.5618 17.3678 14.6562 17.5957 14.6562C17.8561 14.6562 18.0221 14.5521 18.0938 14.3438C18.1719 14.1289 18.2109 13.6276 18.2109 12.8398V1.18945H22.3223ZM33.1953 1.18945V4.35352H30.7539V17H26.6426V4.35352H24.2109V1.18945H33.1953ZM44.5273 10.4473C44.5273 12.0358 44.4883 13.1621 44.4102 13.8262C44.3385 14.4837 44.1042 15.0859 43.707 15.6328C43.3164 16.1797 42.7858 16.5996 42.1152 16.8926C41.4447 17.1855 40.6634 17.332 39.7715 17.332C38.9251 17.332 38.1634 17.1953 37.4863 16.9219C36.8158 16.6419 36.2754 16.2253 35.8652 15.6719C35.4551 15.1185 35.2109 14.5163 35.1328 13.8652C35.0547 13.2142 35.0156 12.0749 35.0156 10.4473V7.74219C35.0156 6.15365 35.0514 5.0306 35.123 4.37305C35.2012 3.70898 35.4355 3.10352 35.8262 2.55664C36.2233 2.00977 36.7572 1.58984 37.4277 1.29688C38.0983 1.00391 38.8796 0.857422 39.7715 0.857422C40.6178 0.857422 41.3763 0.997396 42.0469 1.27734C42.724 1.55078 43.2676 1.96419 43.6777 2.51758C44.0879 3.07096 44.332 3.67318 44.4102 4.32422C44.4883 4.97526 44.5273 6.11458 44.5273 7.74219V10.4473ZM40.416 5.25195C40.416 4.51628 40.3737 4.04753 40.2891 3.8457C40.2109 3.63737 40.0449 3.5332 39.791 3.5332C39.5762 3.5332 39.4102 3.61784 39.293 3.78711C39.1823 3.94987 39.127 4.43815 39.127 5.25195V12.6348C39.127 13.5527 39.1628 14.1191 39.2344 14.334C39.3125 14.5488 39.4883 14.6562 39.7617 14.6562C40.0417 14.6562 40.2207 14.5326 40.2988 14.2852C40.377 14.0378 40.416 13.4486 40.416 12.5176V5.25195Z" fill="url(#paint0_linear_13_205)"/>
<path d="M8.91992 1.18945L9.90902 1.04222C9.83608 0.552197 9.41534 0.189453 8.91992 0.189453V1.18945ZM11.2734 17V18C11.5644 18 11.8409 17.8733 12.0308 17.653C12.2208 17.4326 12.3054 17.1405 12.2625 16.8528L11.2734 17ZM7.06445 17L6.06705 17.072C6.10479 17.595 6.5401 18 7.06445 18V17ZM6.85938 14.1582L7.85678 14.0862C7.81904 13.5632 7.38373 13.1582 6.85938 13.1582V14.1582ZM5.38477 14.1582V13.1582C4.86566 13.1582 4.43287 13.5554 4.38844 14.0726L5.38477 14.1582ZM5.14062 17V18C5.65973 18 6.09252 17.6028 6.13695 17.0856L5.14062 17ZM0.882812 17L-0.108565 16.869C-0.146312 17.1545 -0.0590752 17.4425 0.130802 17.6592C0.320679 17.8758 0.59475 18 0.882812 18V17ZM2.97266 1.18945V0.189453C2.47102 0.189453 2.04701 0.561104 1.98128 1.05841L2.97266 1.18945ZM6.74219 11.3555V12.3555C7.02753 12.3555 7.29929 12.2336 7.48904 12.0205C7.67879 11.8073 7.76847 11.5233 7.73549 11.2399L6.74219 11.3555ZM6.11719 4.72461L7.11407 4.64565C7.07375 4.1367 6.65652 3.73984 6.1462 3.72503C5.63587 3.71022 5.19633 4.08222 5.12657 4.58797L6.11719 4.72461ZM5.33594 11.3555L4.3387 11.2813C4.31806 11.5586 4.41385 11.832 4.60306 12.0358C4.79228 12.2397 5.05783 12.3555 5.33594 12.3555V11.3555ZM7.93082 1.33669L10.2843 17.1472L12.2625 16.8528L9.90902 1.04222L7.93082 1.33669ZM11.2734 16H7.06445V18H11.2734V16ZM8.06186 16.928L7.85678 14.0862L5.86197 14.2302L6.06705 17.072L8.06186 16.928ZM6.85938 13.1582H5.38477V15.1582H6.85938V13.1582ZM4.38844 14.0726L4.1443 16.9144L6.13695 17.0856L6.3811 14.2438L4.38844 14.0726ZM5.14062 16H0.882812V18H5.14062V16ZM1.87419 17.131L3.96403 1.32049L1.98128 1.05841L-0.108565 16.869L1.87419 17.131ZM2.97266 2.18945H8.91992V0.189453H2.97266V2.18945ZM7.73549 11.2399C7.52905 9.46586 7.32183 7.26867 7.11407 4.64565L5.12031 4.80357C5.32921 7.44097 5.53865 9.66435 5.74889 11.4711L7.73549 11.2399ZM5.12657 4.58797C4.70955 7.61137 4.44535 9.84806 4.3387 11.2813L6.33318 11.4297C6.43486 10.0634 6.6915 7.87952 7.10781 4.86125L5.12657 4.58797ZM5.33594 12.3555H6.74219V10.3555H5.33594V12.3555ZM22.3223 1.18945H23.3223C23.3223 0.637168 22.8746 0.189453 22.3223 0.189453V1.18945ZM22.2051 14.2852L23.1922 14.4452L23.1925 14.4431L22.2051 14.2852ZM21.5117 15.7793L22.3093 16.3826L22.3129 16.3777L21.5117 15.7793ZM19.9883 16.9414L20.3729 17.8645L20.3776 17.8625L19.9883 16.9414ZM13.0156 14.0605L12.0223 14.176L12.0225 14.1774L13.0156 14.0605ZM12.918 1.18945V0.189453C12.3657 0.189453 11.918 0.637168 11.918 1.18945H12.918ZM17.0293 1.18945H18.0293C18.0293 0.637168 17.5816 0.189453 17.0293 0.189453V1.18945ZM17.1367 14.373L16.1978 14.7173C16.2025 14.7301 16.2075 14.7428 16.2127 14.7554L17.1367 14.373ZM18.0938 14.3438L17.154 14.002C17.1519 14.0075 17.15 14.0131 17.1481 14.0187L18.0938 14.3438ZM18.2109 1.18945V0.189453C17.6587 0.189453 17.2109 0.637168 17.2109 1.18945H18.2109ZM21.3223 1.18945V11.7559H23.3223V1.18945H21.3223ZM21.3223 11.7559C21.3223 12.9542 21.2819 13.7257 21.2176 14.1272L23.1925 14.4431C23.2845 13.8681 23.3223 12.9533 23.3223 11.7559H21.3223ZM21.218 14.1251C21.1725 14.4058 21.0275 14.7564 20.7105 15.1809L22.3129 16.3777C22.7641 15.7735 23.0815 15.1281 23.1922 14.4452L21.218 14.1251ZM20.7142 15.176C20.444 15.5332 20.0817 15.8163 19.599 16.0203L20.3776 17.8625C21.1579 17.5327 21.8112 17.041 22.3093 16.3826L20.7142 15.176ZM19.6037 16.0183C19.1277 16.2166 18.5254 16.332 17.7715 16.332V18.332C18.7233 18.332 19.5988 18.187 20.3729 17.8645L19.6037 16.0183ZM17.7715 16.332C16.9373 16.332 16.2434 16.1941 15.6684 15.9454L14.8746 17.7811C15.7449 18.1575 16.7176 18.332 17.7715 18.332V16.332ZM15.6684 15.9454C15.067 15.6854 14.6908 15.3787 14.4641 15.0613L12.8367 16.2238C13.3261 16.909 14.0307 17.4162 14.8746 17.7811L15.6684 15.9454ZM14.4641 15.0613C14.1935 14.6824 14.0522 14.3125 14.0088 13.9437L12.0225 14.1774C12.1093 14.9154 12.3912 15.6001 12.8367 16.2238L14.4641 15.0613ZM14.0089 13.945C13.9517 13.453 13.918 12.3408 13.918 10.5449H11.918C11.918 12.3167 11.9493 13.5483 12.0223 14.176L14.0089 13.945ZM13.918 10.5449V1.18945H11.918V10.5449H13.918ZM12.918 2.18945H17.0293V0.189453H12.918V2.18945ZM16.0293 1.18945V13.0449H18.0293V1.18945H16.0293ZM16.0293 13.0449C16.0293 13.4039 16.0385 13.7166 16.0594 13.9752C16.0783 14.2086 16.1122 14.4838 16.1978 14.7173L18.0756 14.0288C18.0896 14.067 18.0698 14.0232 18.0529 13.8139C18.038 13.6298 18.0293 13.376 18.0293 13.0449H16.0293ZM16.2127 14.7554C16.3207 15.0165 16.5057 15.2642 16.785 15.4365C17.0564 15.604 17.3454 15.6562 17.5957 15.6562V13.6562C17.6181 13.6562 17.7167 13.6613 17.8352 13.7344C17.9615 13.8123 18.0308 13.9184 18.0607 13.9907L16.2127 14.7554ZM17.5957 15.6562C17.8536 15.6562 18.1604 15.605 18.447 15.4252C18.7477 15.2365 18.9391 14.9608 19.0394 14.6688L17.1481 14.0187C17.1768 13.935 17.2494 13.8156 17.384 13.7311C17.4435 13.6938 17.4976 13.6747 17.536 13.6653C17.5732 13.6562 17.5952 13.6562 17.5957 13.6562V15.6562ZM19.0335 14.6855C19.1226 14.4406 19.1584 14.1439 19.1786 13.8843C19.201 13.5977 19.2109 13.2469 19.2109 12.8398H17.2109C17.2109 13.2205 17.2014 13.5143 17.1847 13.729C17.1658 13.9707 17.143 14.0321 17.154 14.002L19.0335 14.6855ZM19.2109 12.8398V1.18945H17.2109V12.8398H19.2109ZM18.2109 2.18945H22.3223V0.189453H18.2109V2.18945ZM33.1953 1.18945H34.1953C34.1953 0.637168 33.7476 0.189453 33.1953 0.189453V1.18945ZM33.1953 4.35352V5.35352C33.7476 5.35352 34.1953 4.9058 34.1953 4.35352H33.1953ZM30.7539 4.35352V3.35352C30.2016 3.35352 29.7539 3.80123 29.7539 4.35352H30.7539ZM30.7539 17V18C31.3062 18 31.7539 17.5523 31.7539 17H30.7539ZM26.6426 17H25.6426C25.6426 17.5523 26.0903 18 26.6426 18V17ZM26.6426 4.35352H27.6426C27.6426 3.80123 27.1949 3.35352 26.6426 3.35352V4.35352ZM24.2109 4.35352H23.2109C23.2109 4.9058 23.6587 5.35352 24.2109 5.35352V4.35352ZM24.2109 1.18945V0.189453C23.6587 0.189453 23.2109 0.637168 23.2109 1.18945H24.2109ZM32.1953 1.18945V4.35352H34.1953V1.18945H32.1953ZM33.1953 3.35352H30.7539V5.35352H33.1953V3.35352ZM29.7539 4.35352V17H31.7539V4.35352H29.7539ZM30.7539 16H26.6426V18H30.7539V16ZM27.6426 17V4.35352H25.6426V17H27.6426ZM26.6426 3.35352H24.2109V5.35352H26.6426V3.35352ZM25.2109 4.35352V1.18945H23.2109V4.35352H25.2109ZM24.2109 2.18945H33.1953V0.189453H24.2109V2.18945ZM44.4102 13.8262L43.417 13.7093L43.416 13.7179L44.4102 13.8262ZM43.707 15.6328L42.8979 15.0452L42.8933 15.0516L43.707 15.6328ZM37.4863 16.9219L37.1011 17.8447L37.1119 17.8491L37.4863 16.9219ZM35.123 4.37305L34.1299 4.2562L34.1289 4.26478L35.123 4.37305ZM35.8262 2.55664L35.017 1.96902L35.0124 1.9754L35.8262 2.55664ZM42.0469 1.27734L41.6616 2.20022L41.6724 2.20459L42.0469 1.27734ZM40.2891 3.8457L39.3527 4.19683C39.3572 4.20878 39.3619 4.22065 39.3669 4.23243L40.2891 3.8457ZM39.293 3.78711L38.4707 3.21788L38.466 3.2248L39.293 3.78711ZM39.2344 14.334L38.2857 14.6502C38.2885 14.6588 38.2915 14.6673 38.2946 14.6757L39.2344 14.334ZM40.2988 14.2852L39.3452 13.984L40.2988 14.2852ZM43.5273 10.4473C43.5273 12.0352 43.4876 13.1093 43.417 13.7093L45.4033 13.943C45.489 13.2149 45.5273 12.0365 45.5273 10.4473H43.5273ZM43.416 13.7179C43.3637 14.1984 43.195 14.6361 42.8979 15.0452L44.5162 16.2204C45.0133 15.5358 45.3134 14.7691 45.4043 13.9344L43.416 13.7179ZM42.8933 15.0516C42.6169 15.4385 42.2351 15.7489 41.7149 15.9762L42.5156 17.8089C43.3365 17.4503 44.0159 16.9209 44.5208 16.2141L42.8933 15.0516ZM41.7149 15.9762C41.195 16.2033 40.5551 16.332 39.7715 16.332V18.332C40.7718 18.332 41.6943 18.1678 42.5156 17.8089L41.7149 15.9762ZM39.7715 16.332C39.0333 16.332 38.4015 16.213 37.8608 15.9946L37.1119 17.8491C37.9253 18.1776 38.817 18.332 39.7715 18.332V16.332ZM37.8716 15.9991C37.3578 15.7846 36.9655 15.4769 36.6686 15.0764L35.0618 16.2673C35.5853 16.9736 36.2737 17.4993 37.1011 17.8447L37.8716 15.9991ZM36.6686 15.0764C36.3565 14.6553 36.1821 14.2158 36.1257 13.7461L34.1399 13.9844C34.2398 14.8168 34.5536 15.5817 35.0618 16.2673L36.6686 15.0764ZM36.1257 13.7461C36.0555 13.1611 36.0156 12.0763 36.0156 10.4473H34.0156C34.0156 12.0735 34.0539 13.2672 34.1399 13.9844L36.1257 13.7461ZM36.0156 10.4473V7.74219H34.0156V10.4473H36.0156ZM36.0156 7.74219C36.0156 6.1538 36.052 5.07934 36.1172 4.48132L34.1289 4.26478C34.0508 4.98186 34.0156 6.15349 34.0156 7.74219H36.0156ZM36.1162 4.48989C36.1745 3.99417 36.3468 3.54829 36.6399 3.13788L35.0124 1.9754C34.5243 2.65874 34.2278 3.4238 34.1299 4.25621L36.1162 4.48989ZM36.6353 3.14424C36.9193 2.75321 37.3067 2.44104 37.8281 2.21324L37.0274 0.380514C36.2077 0.738647 35.5273 1.26632 35.017 1.96904L36.6353 3.14424ZM37.8281 2.21324C38.3479 1.98611 38.9879 1.85742 39.7715 1.85742V-0.142578C38.7712 -0.142578 37.8487 0.0217009 37.0274 0.380514L37.8281 2.21324ZM39.7715 1.85742C40.5071 1.85742 41.1315 1.97884 41.6616 2.20016L42.4321 0.354532C41.6211 0.0159497 40.7286 -0.142578 39.7715 -0.142578V1.85742ZM41.6724 2.20459C42.1894 2.41337 42.5806 2.71665 42.8743 3.11303L44.4811 1.92212C43.9546 1.21174 43.2585 0.688194 42.4213 0.350102L41.6724 2.20459ZM42.8743 3.11303C43.1865 3.53413 43.3609 3.97369 43.4173 4.44336L45.403 4.20507C45.3031 3.37266 44.9893 2.6078 44.4811 1.92212L42.8743 3.11303ZM43.4173 4.44336C43.4875 5.02831 43.5273 6.11319 43.5273 7.74219H45.5273C45.5273 6.11597 45.4891 4.92221 45.403 4.20507L43.4173 4.44336ZM43.5273 7.74219V10.4473H45.5273V7.74219H43.5273ZM41.416 5.25195C41.416 4.86876 41.4051 4.5347 41.3802 4.25872C41.3579 4.01186 41.3173 3.71185 41.2113 3.45898L39.3669 4.23243C39.3503 4.19293 39.3529 4.18451 39.3621 4.23314C39.3701 4.27581 39.3797 4.34248 39.3883 4.43854C39.4057 4.63132 39.416 4.89947 39.416 5.25195H41.416ZM41.2254 3.49458C41.1203 3.2143 40.9308 2.94833 40.6374 2.76426C40.3545 2.58671 40.0513 2.5332 39.791 2.5332V4.5332C39.7846 4.5332 39.6914 4.53178 39.5745 4.45839C39.4471 4.37849 39.3797 4.26878 39.3527 4.19683L41.2254 3.49458ZM39.791 2.5332C39.265 2.5332 38.7842 2.76516 38.4708 3.2179L40.1152 4.35632C40.0897 4.39316 40.0389 4.44712 39.9596 4.48759C39.8818 4.52723 39.8173 4.5332 39.791 4.5332V2.5332ZM38.466 3.2248C38.3428 3.40608 38.2835 3.59711 38.2513 3.72312C38.2155 3.86382 38.1917 4.01407 38.1748 4.16278C38.1411 4.46053 38.127 4.82836 38.127 5.25195H40.127C40.127 4.86175 40.1405 4.57853 40.1621 4.388C40.1729 4.29257 40.1837 4.23937 40.1893 4.21731C40.1987 4.18056 40.1878 4.24952 40.1199 4.34942L38.466 3.2248ZM38.127 5.25195V12.6348H40.127V5.25195H38.127ZM38.127 12.6348C38.127 13.1037 38.136 13.4982 38.1558 13.8111C38.1734 14.0896 38.204 14.405 38.2857 14.6502L40.1831 14.0178C40.1932 14.0481 40.17 13.9729 40.1518 13.685C40.1358 13.4315 40.127 13.0838 40.127 12.6348H38.127ZM38.2946 14.6757C38.4021 14.9713 38.6007 15.244 38.9034 15.429C39.1917 15.6052 39.4996 15.6562 39.7617 15.6562V13.6562C39.7504 13.6562 39.8337 13.6536 39.9463 13.7224C40.0731 13.7999 40.1448 13.9115 40.1742 13.9922L38.2946 14.6757ZM39.7617 15.6562C40.0468 15.6562 40.3757 15.5925 40.6744 15.3862C40.98 15.1751 41.1598 14.8797 41.2524 14.5863L39.3452 13.984C39.3598 13.938 39.411 13.8282 39.5375 13.7407C39.6571 13.6581 39.7566 13.6562 39.7617 13.6562V15.6562ZM41.2524 14.5863C41.3308 14.338 41.3647 14.0233 41.3845 13.7239C41.4061 13.3985 41.416 12.9941 41.416 12.5176H39.416C39.416 12.972 39.4064 13.3277 39.3889 13.5916C39.3697 13.8813 39.345 13.9849 39.3452 13.984L41.2524 14.5863ZM41.416 12.5176V5.25195H39.416V12.5176H41.416Z" fill="#00E0FF" fill-opacity="0.28"/>
<defs>
<linearGradient id="paint0_linear_13_205" x1="23.5" y1="-3" x2="23.5" y2="21" gradientUnits="userSpaceOnUse">
<stop stop-color="white"/>
<stop offset="1" stop-color="#1DC9FF"/>
</linearGradient>
</defs>
</svg>
