<svg width="40" height="18" viewBox="0 0 40 18" fill="none" xmlns="http://www.w3.org/2000/svg">
<path d="M9.53125 5.97461H5.71289V4.80273C5.71289 4.25586 5.66406 3.90755 5.56641 3.75781C5.46875 3.60807 5.30599 3.5332 5.07812 3.5332C4.83073 3.5332 4.64193 3.63411 4.51172 3.83594C4.38802 4.03776 4.32617 4.34375 4.32617 4.75391C4.32617 5.28125 4.39779 5.67839 4.54102 5.94531C4.67773 6.21224 5.0651 6.53451 5.70312 6.91211C7.53255 7.99935 8.6849 8.89128 9.16016 9.58789C9.63542 10.2845 9.87305 11.4076 9.87305 12.957C9.87305 14.0833 9.73958 14.9134 9.47266 15.4473C9.21224 15.9811 8.70443 16.4303 7.94922 16.7949C7.19401 17.153 6.3151 17.332 5.3125 17.332C4.21224 17.332 3.27148 17.1237 2.49023 16.707C1.71549 16.2904 1.20768 15.7598 0.966797 15.1152C0.725911 14.4707 0.605469 13.556 0.605469 12.3711V11.3359H4.42383V13.2598C4.42383 13.8522 4.47591 14.2331 4.58008 14.4023C4.69076 14.5716 4.88281 14.6562 5.15625 14.6562C5.42969 14.6562 5.63151 14.5488 5.76172 14.334C5.89844 14.1191 5.9668 13.8001 5.9668 13.377C5.9668 12.446 5.83984 11.8372 5.58594 11.5508C5.32552 11.2643 4.68424 10.7858 3.66211 10.1152C2.63997 9.43815 1.96289 8.94661 1.63086 8.64062C1.29883 8.33464 1.02214 7.91146 0.800781 7.37109C0.585938 6.83073 0.478516 6.14062 0.478516 5.30078C0.478516 4.08984 0.63151 3.20443 0.9375 2.64453C1.25 2.08464 1.7513 1.64844 2.44141 1.33594C3.13151 1.01693 3.96484 0.857422 4.94141 0.857422C6.00911 0.857422 6.91732 1.02995 7.66602 1.375C8.42122 1.72005 8.91927 2.15625 9.16016 2.68359C9.40755 3.20443 9.53125 4.0931 9.53125 5.34961V5.97461ZM12.1719 1.18945H16.3125C17.4323 1.18945 18.2917 1.27734 18.8906 1.45312C19.4961 1.62891 19.9486 1.88281 20.248 2.21484C20.554 2.54688 20.7591 2.95052 20.8633 3.42578C20.974 3.89453 21.0293 4.6237 21.0293 5.61328V6.99023C21.0293 7.99935 20.9251 8.73503 20.7168 9.19727C20.5085 9.65951 20.1243 10.0143 19.5645 10.2617C19.0111 10.5091 18.2852 10.6328 17.3867 10.6328H16.2832V17H12.1719V1.18945ZM16.2832 3.89453V7.91797C16.4004 7.92448 16.5013 7.92773 16.5859 7.92773C16.9635 7.92773 17.224 7.83659 17.3672 7.6543C17.5169 7.46549 17.5918 7.07812 17.5918 6.49219V5.19336C17.5918 4.65299 17.5072 4.30143 17.3379 4.13867C17.1686 3.97591 16.8171 3.89453 16.2832 3.89453ZM27.3223 1.18945V17H23.2109V1.18945H27.3223ZM39.1523 1.18945V17H35.5488L33.4102 9.8125V17H29.9727V1.18945H33.4102L35.7148 8.30859V1.18945H39.1523Z" fill="url(#paint0_linear_13_202)"/>
<path d="M9.53125 5.97461V6.97461C10.0835 6.97461 10.5312 6.52689 10.5312 5.97461H9.53125ZM5.71289 5.97461H4.71289C4.71289 6.52689 5.16061 6.97461 5.71289 6.97461V5.97461ZM4.51172 3.83594L3.67142 3.29381C3.66725 3.30028 3.66314 3.30681 3.65912 3.31338L4.51172 3.83594ZM4.54102 5.94531L5.43106 5.48944C5.42815 5.48376 5.42519 5.47811 5.42218 5.47249L4.54102 5.94531ZM5.70312 6.91211L6.21402 6.05246L6.21245 6.05153L5.70312 6.91211ZM9.47266 15.4473L8.57819 15L8.57389 15.0088L9.47266 15.4473ZM7.94922 16.7949L8.37765 17.6985L8.38397 17.6955L7.94922 16.7949ZM2.49023 16.707L2.01657 17.5877L2.01965 17.5894L2.49023 16.707ZM0.605469 11.3359V10.3359C0.053184 10.3359 -0.394531 10.7837 -0.394531 11.3359H0.605469ZM4.42383 11.3359H5.42383C5.42383 10.7837 4.97611 10.3359 4.42383 10.3359V11.3359ZM4.58008 14.4023L3.72842 14.9264C3.73321 14.9342 3.73811 14.9419 3.74311 14.9496L4.58008 14.4023ZM5.76172 14.334L4.91806 13.7971C4.91414 13.8033 4.9103 13.8094 4.90652 13.8157L5.76172 14.334ZM5.58594 11.5508L6.33434 10.8874L6.32588 10.8781L5.58594 11.5508ZM3.66211 10.1152L3.10986 10.9489L3.11357 10.9514L3.66211 10.1152ZM0.800781 7.37109L-0.128515 7.74057L-0.124588 7.75016L0.800781 7.37109ZM0.9375 2.64453L0.0642676 2.15715L0.0599947 2.16496L0.9375 2.64453ZM2.44141 1.33594L2.85393 2.24692L2.86101 2.24365L2.44141 1.33594ZM7.66602 1.375L7.24746 2.2832L7.25044 2.28456L7.66602 1.375ZM9.16016 2.68359L8.25056 3.09909C8.25263 3.10362 8.25474 3.10815 8.25688 3.11265L9.16016 2.68359ZM9.53125 4.97461H5.71289V6.97461H9.53125V4.97461ZM6.71289 5.97461V4.80273H4.71289V5.97461H6.71289ZM6.71289 4.80273C6.71289 4.5053 6.69995 4.23054 6.66659 3.99252C6.63777 3.787 6.57831 3.4788 6.40402 3.21154L4.7288 4.30408C4.70366 4.26554 4.68902 4.23453 4.68159 4.21719C4.67767 4.20803 4.67505 4.20103 4.67348 4.19661C4.67191 4.19217 4.67118 4.1897 4.67113 4.18951C4.67111 4.18946 4.67299 4.19591 4.67592 4.21026C4.67882 4.22444 4.68231 4.24416 4.68595 4.27018C4.70141 4.38046 4.71289 4.5533 4.71289 4.80273H6.71289ZM6.40402 3.21154C6.07096 2.70085 5.53899 2.5332 5.07812 2.5332V4.5332C5.08568 4.5332 5.03342 4.53475 4.95319 4.49785C4.86372 4.45669 4.78317 4.38745 4.7288 4.30408L6.40402 3.21154ZM5.07812 2.5332C4.50338 2.5332 3.99237 2.79634 3.67142 3.29381L5.35202 4.37806C5.33644 4.4022 5.29536 4.4518 5.22235 4.49082C5.1506 4.52917 5.09312 4.5332 5.07812 4.5332V2.5332ZM3.65912 3.31338C3.39175 3.74961 3.32617 4.27776 3.32617 4.75391H5.32617C5.32617 4.59595 5.33835 4.48608 5.35274 4.41492C5.36744 4.34219 5.3797 4.33341 5.36432 4.3585L3.65912 3.31338ZM3.32617 4.75391C3.32617 5.34048 3.4005 5.93479 3.65986 6.41813L5.42218 5.47249C5.39507 5.42198 5.32617 5.22202 5.32617 4.75391H3.32617ZM3.65097 6.40119C3.80895 6.70961 4.05821 6.95935 4.29453 7.15596C4.54329 7.36291 4.84823 7.56816 5.1938 7.77269L6.21245 6.05153C5.92 5.87845 5.71224 5.73377 5.57363 5.61846C5.42259 5.4928 5.4098 5.44794 5.43106 5.48944L3.65097 6.40119ZM5.19223 7.77175C6.08625 8.30307 6.79448 8.77481 7.32737 9.18728C7.87173 9.60862 8.18323 9.93034 8.33409 10.1515L9.98622 9.02431C9.66182 8.54883 9.15952 8.07628 8.55154 7.60569C7.93209 7.12623 7.14943 6.60838 6.21402 6.05246L5.19223 7.77175ZM8.33409 10.1515C8.6352 10.5928 8.87305 11.4634 8.87305 12.957H10.873C10.873 11.3517 10.6356 9.97619 9.98622 9.02431L8.33409 10.1515ZM8.87305 12.957C8.87305 14.0424 8.73821 14.6801 8.57823 15.0001L10.3671 15.8945C10.741 15.1467 10.873 14.1243 10.873 12.957H8.87305ZM8.57389 15.0088C8.44532 15.2724 8.14899 15.588 7.51447 15.8944L8.38397 17.6955C9.25986 17.2726 9.97916 16.6898 10.3714 15.8857L8.57389 15.0088ZM7.5208 15.8913C6.92356 16.1745 6.19609 16.332 5.3125 16.332V18.332C6.43412 18.332 7.46446 18.1315 8.37764 17.6985L7.5208 15.8913ZM5.3125 16.332C4.33721 16.332 3.56623 16.1476 2.96082 15.8247L2.01965 17.5894C2.97674 18.0998 4.08727 18.332 5.3125 18.332V16.332ZM2.96389 15.8263C2.3416 15.4916 2.03799 15.125 1.90351 14.7651L0.0300794 15.4653C0.377376 16.3946 1.08939 17.0891 2.01658 17.5877L2.96389 15.8263ZM1.90351 14.7651C1.72419 14.2853 1.60547 13.5099 1.60547 12.3711H-0.394531C-0.394531 13.602 -0.272362 14.6561 0.0300794 15.4653L1.90351 14.7651ZM1.60547 12.3711V11.3359H-0.394531V12.3711H1.60547ZM0.605469 12.3359H4.42383V10.3359H0.605469V12.3359ZM3.42383 11.3359V13.2598H5.42383V11.3359H3.42383ZM3.42383 13.2598C3.42383 13.5799 3.43758 13.8728 3.47211 14.1252C3.50266 14.3486 3.5632 14.658 3.72842 14.9264L5.43174 13.8782C5.46977 13.94 5.4781 13.9781 5.47367 13.9625C5.47048 13.9513 5.46234 13.9177 5.45367 13.8543C5.43611 13.7259 5.42383 13.5321 5.42383 13.2598H3.42383ZM3.74311 14.9496C4.10044 15.4961 4.67677 15.6562 5.15625 15.6562V13.6562C5.11819 13.6562 5.1471 13.6498 5.21039 13.6777C5.28442 13.7103 5.36232 13.7714 5.41705 13.8551L3.74311 14.9496ZM5.15625 15.6562C5.74211 15.6562 6.28696 15.3967 6.61692 14.8523L4.90652 13.8157C4.92522 13.7848 4.96941 13.732 5.04285 13.6929C5.11238 13.6559 5.16107 13.6562 5.15625 13.6562V15.6562ZM6.60538 14.8709C6.89136 14.4215 6.9668 13.8776 6.9668 13.377H4.9668C4.9668 13.5377 4.95355 13.6502 4.93772 13.7241C4.92178 13.7985 4.90749 13.8137 4.91806 13.7971L6.60538 14.8709ZM6.9668 13.377C6.9668 12.8731 6.93306 12.4138 6.85052 12.018C6.77137 11.6385 6.62768 11.2185 6.33428 10.8875L4.83759 12.2141C4.7981 12.1695 4.84484 12.1971 4.89265 12.4263C4.93706 12.6393 4.9668 12.9498 4.9668 13.377H6.9668ZM6.32588 10.8781C5.9648 10.4809 5.21026 9.9349 4.21065 9.27911L3.11357 10.9514C4.15823 11.6367 4.68624 12.0477 4.846 12.2235L6.32588 10.8781ZM4.21436 9.28155C3.18596 8.60032 2.57354 8.14948 2.30854 7.90527L0.953178 9.37598C1.35225 9.74375 2.09399 10.276 3.10986 10.9489L4.21436 9.28155ZM2.30854 7.90527C2.11087 7.7231 1.90767 7.43514 1.72615 6.99203L-0.124588 7.75016C0.136605 8.38778 0.486789 8.94617 0.953178 9.37598L2.30854 7.90527ZM1.73003 7.00163C1.57779 6.61873 1.47852 6.06562 1.47852 5.30078H-0.521484C-0.521484 6.21563 -0.405916 7.04272 -0.128466 7.74055L1.73003 7.00163ZM1.47852 5.30078C1.47852 4.13208 1.6334 3.45639 1.81501 3.1241L0.0599947 2.16496C-0.370381 2.95246 -0.521484 4.04761 -0.521484 5.30078H1.47852ZM1.8107 3.1319C2.00094 2.79104 2.32225 2.48765 2.85391 2.24689L2.0289 0.424983C1.18036 0.809228 0.499055 1.37823 0.0643023 2.15717L1.8107 3.1319ZM2.86101 2.24365C3.38776 2.00014 4.07004 1.85742 4.94141 1.85742V-0.142578C3.85965 -0.142578 2.87526 0.0337092 2.02181 0.428229L2.86101 2.24365ZM4.94141 1.85742C5.90556 1.85742 6.66272 2.0137 7.24746 2.28319L8.08457 0.46681C7.17192 0.0461956 6.11266 -0.142578 4.94141 -0.142578V1.85742ZM7.25044 2.28456C7.88008 2.57224 8.1452 2.86844 8.25056 3.09909L10.0698 2.2681C9.69334 1.44406 8.96237 0.867867 8.08159 0.465441L7.25044 2.28456ZM8.25688 3.11265C8.40078 3.41559 8.53125 4.10656 8.53125 5.34961H10.5312C10.5312 4.07964 10.4143 2.99326 10.0634 2.25454L8.25688 3.11265ZM8.53125 5.34961V5.97461H10.5312V5.34961H8.53125ZM12.1719 1.18945V0.189453C11.6196 0.189453 11.1719 0.637168 11.1719 1.18945H12.1719ZM18.8906 1.45312L18.609 2.41266L18.6118 2.41347L18.8906 1.45312ZM20.248 2.21484L19.5054 2.88465L19.5127 2.89252L20.248 2.21484ZM20.8633 3.42578L19.8865 3.63988C19.8876 3.64512 19.8888 3.65035 19.89 3.65557L20.8633 3.42578ZM19.5645 10.2617L19.1603 9.34702L19.1563 9.3488L19.5645 10.2617ZM16.2832 10.6328V9.63281C15.7309 9.63281 15.2832 10.0805 15.2832 10.6328H16.2832ZM16.2832 17V18C16.8355 18 17.2832 17.5523 17.2832 17H16.2832ZM12.1719 17H11.1719C11.1719 17.5523 11.6196 18 12.1719 18V17ZM16.2832 3.89453V2.89453C15.7309 2.89453 15.2832 3.34225 15.2832 3.89453H16.2832ZM16.2832 7.91797H15.2832C15.2832 8.4487 15.6978 8.88699 16.2277 8.91643L16.2832 7.91797ZM17.3672 7.6543L16.5837 7.0329L16.5809 7.03648L17.3672 7.6543ZM12.1719 2.18945H16.3125V0.189453H12.1719V2.18945ZM16.3125 2.18945C17.3997 2.18945 18.1468 2.277 18.609 2.41266L19.1722 0.493594C18.4366 0.277692 17.4648 0.189453 16.3125 0.189453V2.18945ZM18.6118 2.41347C19.1085 2.55767 19.3716 2.73621 19.5055 2.88461L20.9906 1.54507C20.5255 1.02941 19.8837 0.700138 19.1694 0.492779L18.6118 2.41347ZM19.5127 2.89252C19.6892 3.08409 19.8172 3.32393 19.8865 3.63988L21.8401 3.21169C21.701 2.57711 21.4188 2.00966 20.9834 1.53716L19.5127 2.89252ZM19.89 3.65557C19.9727 4.00559 20.0293 4.63784 20.0293 5.61328H22.0293C22.0293 4.60956 21.9752 3.78347 21.8365 3.19599L19.89 3.65557ZM20.0293 5.61328V6.99023H22.0293V5.61328H20.0293ZM20.0293 6.99023C20.0293 7.97052 19.922 8.52697 19.8051 8.78637L21.6285 9.60816C21.9282 8.94308 22.0293 8.02818 22.0293 6.99023H20.0293ZM19.8051 8.78637C19.7182 8.97929 19.5438 9.17756 19.1603 9.34703L19.9686 11.1764C20.7049 10.8511 21.2988 10.3397 21.6285 9.60816L19.8051 8.78637ZM19.1563 9.3488C18.7779 9.51798 18.2064 9.63281 17.3867 9.63281V11.6328C18.3639 11.6328 19.2443 11.5002 19.9726 11.1746L19.1563 9.3488ZM17.3867 9.63281H16.2832V11.6328H17.3867V9.63281ZM15.2832 10.6328V17H17.2832V10.6328H15.2832ZM16.2832 16H12.1719V18H16.2832V16ZM13.1719 17V1.18945H11.1719V17H13.1719ZM15.2832 3.89453V7.91797H17.2832V3.89453H15.2832ZM16.2277 8.91643C16.3569 8.92361 16.4773 8.92773 16.5859 8.92773V6.92773C16.5253 6.92773 16.4439 6.92535 16.3387 6.91951L16.2277 8.91643ZM16.5859 8.92773C17.0788 8.92773 17.7275 8.81427 18.1535 8.27212L16.5809 7.03648C16.6121 6.99668 16.6463 6.96679 16.6769 6.94601C16.7067 6.92587 16.7282 6.91758 16.7341 6.91552C16.7395 6.91362 16.7316 6.917 16.7057 6.9207C16.68 6.92438 16.6408 6.92773 16.5859 6.92773V8.92773ZM18.1507 8.27569C18.3696 7.99966 18.4668 7.67426 18.5175 7.41193C18.5713 7.13354 18.5918 6.82137 18.5918 6.49219H16.5918C16.5918 6.74894 16.5749 6.92343 16.5538 7.0324C16.5436 7.08536 16.5349 7.1093 16.5337 7.11226C16.5322 7.1162 16.5444 7.08238 16.5837 7.0329L18.1507 8.27569ZM18.5918 6.49219V5.19336H16.5918V6.49219H18.5918ZM18.5918 5.19336C18.5918 4.87904 18.568 4.57044 18.5005 4.29036C18.4359 4.02165 18.3087 3.68488 18.031 3.41784L16.6448 4.8595C16.5875 4.80442 16.5608 4.75612 16.5523 4.73881C16.544 4.72198 16.548 4.72493 16.5561 4.75847C16.5733 4.82995 16.5918 4.96732 16.5918 5.19336H18.5918ZM18.031 3.41784C17.7643 3.16138 17.4376 3.04264 17.1728 2.98133C16.897 2.91748 16.5935 2.89453 16.2832 2.89453V4.89453C16.5067 4.89453 16.646 4.91227 16.7217 4.92981C16.7576 4.9381 16.7646 4.94308 16.7523 4.93732C16.7398 4.93146 16.6968 4.90948 16.6448 4.8595L18.031 3.41784ZM27.3223 1.18945H28.3223C28.3223 0.637168 27.8746 0.189453 27.3223 0.189453V1.18945ZM27.3223 17V18C27.8746 18 28.3223 17.5523 28.3223 17H27.3223ZM23.2109 17H22.2109C22.2109 17.5523 22.6587 18 23.2109 18V17ZM23.2109 1.18945V0.189453C22.6587 0.189453 22.2109 0.637168 22.2109 1.18945H23.2109ZM26.3223 1.18945V17H28.3223V1.18945H26.3223ZM27.3223 16H23.2109V18H27.3223V16ZM24.2109 17V1.18945H22.2109V17H24.2109ZM23.2109 2.18945H27.3223V0.189453H23.2109V2.18945ZM39.1523 1.18945H40.1523C40.1523 0.637168 39.7046 0.189453 39.1523 0.189453V1.18945ZM39.1523 17V18C39.7046 18 40.1523 17.5523 40.1523 17H39.1523ZM35.5488 17L34.5904 17.2852C34.7165 17.7093 35.1064 18 35.5488 18V17ZM33.4102 9.8125L34.3686 9.5273C34.227 9.05131 33.7575 8.75137 33.2661 8.82294C32.7746 8.8945 32.4102 9.31588 32.4102 9.8125H33.4102ZM33.4102 17V18C33.9624 18 34.4102 17.5523 34.4102 17H33.4102ZM29.9727 17H28.9727C28.9727 17.5523 29.4204 18 29.9727 18V17ZM29.9727 1.18945V0.189453C29.4204 0.189453 28.9727 0.637168 28.9727 1.18945H29.9727ZM33.4102 1.18945L34.3615 0.881459C34.228 0.468916 33.8438 0.189453 33.4102 0.189453V1.18945ZM35.7148 8.30859L34.7635 8.61659C34.915 9.08476 35.3847 9.37309 35.8707 9.29637C36.3568 9.21965 36.7148 8.80069 36.7148 8.30859H35.7148ZM35.7148 1.18945V0.189453C35.1626 0.189453 34.7148 0.637168 34.7148 1.18945H35.7148ZM38.1523 1.18945V17H40.1523V1.18945H38.1523ZM39.1523 16H35.5488V18H39.1523V16ZM36.5073 16.7148L34.3686 9.5273L32.4517 10.0977L34.5904 17.2852L36.5073 16.7148ZM32.4102 9.8125V17H34.4102V9.8125H32.4102ZM33.4102 16H29.9727V18H33.4102V16ZM30.9727 17V1.18945H28.9727V17H30.9727ZM29.9727 2.18945H33.4102V0.189453H29.9727V2.18945ZM32.4588 1.49745L34.7635 8.61659L36.6662 8.0006L34.3615 0.881459L32.4588 1.49745ZM36.7148 8.30859V1.18945H34.7148V8.30859H36.7148ZM35.7148 2.18945H39.1523V0.189453H35.7148V2.18945Z" fill="#33FF00" fill-opacity="0.28"/>
<defs>
<linearGradient id="paint0_linear_13_202" x1="20" y1="-3" x2="20" y2="21" gradientUnits="userSpaceOnUse">
<stop stop-color="white"/>
<stop offset="1" stop-color="#73FF1D"/>
</linearGradient>
</defs>
</svg>
